<?xml version="1.0" standalone="no"?>
<!DOCTYPE svg PUBLIC "-//W3C//DTD SVG 20010904//EN"
 "http://www.w3.org/TR/2001/REC-SVG-20010904/DTD/svg10.dtd">
<svg version="1.0" xmlns="http://www.w3.org/2000/svg"
 width="779.000000pt" height="779.000000pt" viewBox="0 0 779.000000 779.000000"
 preserveAspectRatio="xMidYMid meet">
<metadata>
Created by potrace 1.14, written by Peter Selinger 2001-2017
</metadata>
<g transform="translate(0.000000,779.000000) scale(0.100000,-0.100000)"
fill="#000000" stroke="none">
<path d="M6075 6498 c-218 -32 -404 -181 -481 -385 -31 -81 -35 -102 -39 -199
-5 -137 45 -293 125 -389 54 -65 885 -885 896 -885 7 0 14 -4 16 -9 2 -5 30
-22 64 -39 235 -118 515 -73 698 112 34 34 67 70 74 81 30 47 80 164 93 215
17 72 14 211 -6 280 -8 30 -17 60 -18 65 -8 29 -63 125 -92 160 -34 42 -817
824 -869 868 -16 14 -41 31 -55 38 -14 7 -33 18 -41 25 -20 15 -129 52 -177
59 -63 10 -135 11 -188 3z m498 -947 c214 -212 393 -394 398 -403 13 -24 -3
-54 -33 -61 -24 -7 -9 -21 -544 511 -164 164 -284 291 -284 301 0 22 39 50 60
43 8 -3 190 -179 403 -391z"/>
<path d="M3402 6489 c-181 -22 -280 -46 -437 -106 -100 -38 -268 -121 -273
-134 -2 -5 -8 -9 -14 -9 -8 0 -154 -95 -168 -110 -3 -3 -21 -18 -40 -34 -93
-75 -238 -231 -318 -341 -21 -28 -92 -145 -110 -182 -14 -27 -298 -317 -819
-840 -439 -439 -810 -811 -824 -828 -107 -124 -282 -438 -304 -545 -2 -8 -10
-35 -19 -60 -18 -53 -42 -155 -51 -220 -4 -25 -11 -70 -15 -100 -9 -61 -5
-375 5 -430 6 -33 32 -156 39 -190 80 -345 330 -725 624 -947 42 -32 78 -61
80 -65 2 -5 7 -8 12 -8 4 0 37 -18 71 -39 104 -64 303 -157 351 -165 7 -1 18
-4 23 -7 6 -4 24 -10 40 -14 17 -5 35 -9 40 -11 26 -7 163 -36 190 -40 177
-24 424 -24 549 2 12 2 37 7 56 10 41 7 63 12 70 14 3 1 10 3 15 4 46 8 252
79 290 99 11 6 22 12 25 12 24 4 280 153 300 175 3 3 37 30 75 61 39 31 229
214 424 408 195 194 357 353 362 354 4 1 169 -158 366 -353 373 -371 441 -432
558 -509 38 -25 72 -48 75 -51 17 -18 293 -146 332 -154 7 -2 20 -6 28 -9 36
-15 190 -52 260 -63 14 -2 45 -7 70 -11 63 -10 362 -10 435 0 77 11 147 24
199 38 39 11 67 17 93 23 7 1 16 5 19 9 4 4 13 7 20 7 7 0 25 5 41 12 15 6 33
12 38 13 23 5 180 80 183 87 2 5 7 6 12 3 4 -3 13 2 20 10 7 8 17 15 23 15 13
0 134 80 212 139 95 73 256 238 333 343 40 53 72 101 72 107 0 6 3 11 8 11 4
0 12 10 18 23 6 12 32 61 57 110 26 48 47 91 48 95 2 10 16 49 33 92 23 56 55
162 61 200 3 19 8 43 11 52 20 66 29 168 29 338 0 152 -10 304 -22 323 -3 5
-7 23 -10 40 -2 18 -10 52 -17 77 -8 25 -15 50 -16 55 -1 6 -4 15 -5 20 -21
79 -76 211 -143 340 -18 35 -103 168 -112 175 -3 3 -17 21 -30 40 -14 19 -40
53 -60 75 -67 76 -2095 2096 -2165 2156 -131 113 -352 244 -510 302 -93 35
-69 28 -196 61 -95 24 -112 28 -239 45 -78 10 -291 10 -378 0z m293 -713 c77
-7 115 -15 220 -48 85 -27 265 -121 265 -138 0 -5 10 -12 23 -16 12 -4 265
-249 562 -545 1117 -1113 1551 -1546 1578 -1578 84 -96 165 -255 204 -400 23
-81 27 -118 27 -236 1 -170 -5 -217 -45 -337 -90 -269 -272 -478 -524 -602
-76 -38 -104 -49 -155 -61 -3 -1 -12 -5 -20 -8 -41 -17 -185 -35 -279 -36
-225 0 -437 70 -619 205 -72 53 -2102 2071 -2162 2149 -56 73 -113 171 -139
240 -12 33 -26 67 -31 76 -4 8 -13 40 -19 70 -6 30 -14 65 -18 79 -3 14 -7 85
-8 159 -2 125 4 171 39 306 11 40 62 161 73 173 7 7 13 18 13 23 0 21 100 157
162 220 75 76 151 134 241 184 66 36 205 91 254 100 16 3 39 7 53 11 14 3 57
8 95 11 39 3 71 6 73 8 2 2 30 0 137 -9z m-1809 -1443 c33 -151 146 -409 240
-548 86 -128 132 -177 575 -621 l440 -440 -309 -310 c-373 -371 -401 -398
-474 -452 -61 -45 -184 -112 -205 -112 -7 0 -13 -4 -13 -8 0 -5 -6 -9 -12 -10
-7 -1 -55 -13 -106 -26 -100 -27 -173 -38 -267 -38 -62 0 -156 9 -188 19 -11
3 -29 6 -40 8 -34 4 -102 24 -144 42 -21 9 -41 17 -44 17 -9 1 -104 50 -109
57 -3 3 -17 12 -31 20 -97 52 -262 220 -326 333 -53 93 -132 286 -117 286 2 0
-1 11 -6 24 -33 87 -30 316 5 466 3 14 7 30 9 37 1 7 5 16 9 19 4 4 7 14 7 21
0 31 103 240 130 263 3 3 14 19 24 35 20 31 925 943 938 944 4 1 10 -11 14
-26z"/>
</g>
</svg>
